Coordinates
version=1
nRows=13
nColumns=22
inDegrees=yes

Units are S.I. units (second, meters, Newtons, ...)
If the header above contains a line with 'inDegrees', this indicates whether rotational values are in degrees (yes) or radians (no).

endheader
time	pelvis_tilt	pelvis_list	pelvis_rotation	pelvis_tx	pelvis_ty	pelvis_tz	hip_flexion_r	hip_adduction_r	hip_rotation_r	knee_angle_r	ankle_angle_r	subtalar_angle_r	hip_flexion_l	hip_adduction_l	hip_rotation_l	knee_angle_l	ankle_angle_l	subtalar_angle_l	lumbar_extension	lumbar_bending	lumbar_rotation
      5.54000000	     -3.41284985	     -1.17628125	    289.80418298	     -0.64171650	      0.94070219	      0.51094956	     29.98571694	      1.82047536	     11.16464655	    -38.20211269	     10.24966971	      5.96901328	      0.43593816	     10.72017727	     21.62488211	    -21.50870175	     10.55460906	    -20.60596703	     -8.62546237	      1.82947292	     -6.89298668
      5.55000000	     -3.28554913	     -1.15814973	    290.61388705	     -0.63951311	      0.93969879	      0.51844918	     30.03502764	      1.75204793	     11.64130128	    -35.62946416	     10.35565618	      6.29151554	     -0.20794096	     10.73679276	     22.02993222	    -21.43927845	     10.75203878	    -20.87369085	     -8.62917612	      1.70574823	     -6.97171464
      5.56000000	     -3.18365881	     -1.09770814	    291.44434153	     -0.63716324	      0.93853528	      0.52590209	     30.09485708	      1.62343765	     11.90931918	    -33.03916926	     10.48450390	      6.56118646	     -0.78641989	     10.74285751	     22.40239833	    -21.40390636	     11.01000093	    -21.10458742	     -8.57852314	      1.60790332	     -7.10565256
      5.57000000	     -3.09552845	     -1.02172979	    292.27522357	     -0.63469855	      0.93728419	      0.53334321	     30.12975088	      1.45789520	     12.00828928	    -30.44096154	     10.63631032	      6.86608818	     -1.33855780	     10.73703991	     22.73460353	    -21.38775403	     11.27055945	    -21.30874394	     -8.50725017	      1.52652571	     -7.25761597
      5.58000000	     -3.02744341	     -0.93148214	    293.10325609	     -0.63212854	      0.93595579	      0.54079791	     30.14329361	      1.27702331	     11.96304655	    -27.86003338	     10.80822334	      7.25826252	     -1.86837887	     10.70968346	     23.03463333	    -21.38122990	     11.53918132	    -21.48492189	     -8.41021716	      1.46801742	     -7.42550607
      5.59000000	     -2.97651131	     -0.83465627	    293.93198331	     -0.62946172	      0.93457733	      0.54826960	     30.12940156	      1.09049675	     11.79884690	    -25.32280364	     10.98132477	      7.73328067	     -2.37836157	     10.66007228	     23.30852218	    -21.39418618	     11.81534218	    -21.62271498	     -8.29851417	      1.42887327	     -7.62097279
      5.60000000	     -2.94612621	     -0.73490059	    294.73604860	     -0.62673678	      0.93317155	      0.55580686	     30.08733711	      0.92668327	     11.58776402	    -22.85514975	     11.17691697	      8.37217090	     -2.88558246	     10.57860085	     23.57188322	    -21.39674398	     12.07756897	    -21.71749281	     -8.17024271	      1.40922336	     -7.79267278
      5.61000000	     -2.92786958	     -0.62642307	    295.51553139	     -0.62397237	      0.93174032	      0.56339858	     30.03647884	      0.78234088	     11.36107307	    -20.50761844	     11.34688494	      9.09205810	     -3.37393304	     10.47760407	     23.81775571	    -21.40903941	     12.34742595	    -21.76225633	     -8.02739064	      1.39432937	     -7.96137425
      5.62000000	     -2.90849038	     -0.53044442	    296.27252280	     -0.62113994	      0.93033385	      0.57104308	     29.96196215	      0.65170806	     11.11210455	    -18.32259430	     11.51241798	      9.79327084	     -3.87417402	     10.36220738	     24.07221209	    -21.42618826	     12.59658598	    -21.74675717	     -7.90047438	      1.38446789	     -8.11474788
      5.63000000	     -2.88286833	     -0.44010091	    296.99505318	     -0.61826704	      0.92895860	      0.57876240	     29.89036197	      0.53791167	     10.84723132	    -16.36046964	     11.65654572	     10.47831717	     -4.37998810	     10.23814141	     24.32821851	    -21.44826217	     12.83556542	    -21.66366753	     -7.78417640	      1.36816357	     -8.24662913
      5.64000000	     -2.84147905	     -0.36114112	    297.67940600	     -0.61535137	      0.92764288	      0.58659985	     29.83066903	      0.44182421	     10.54315382	    -14.67968885	     11.79742891	     11.06472673	     -4.91563524	     10.10552534	     24.59604099	    -21.45150400	     13.05594946	    -21.50571108	     -7.68518583	      1.33725990	     -8.36177673
      5.65000000	     -2.80683738	     -0.26376126	    298.34808292	     -0.61237243	      0.92633027	      0.59450943	     29.84420443	      0.36266930	     10.13463831	    -13.33148145	     11.87581821	     11.35985440	     -5.42633503	      9.96525057	     24.91433238	    -21.46843692	     13.24352695	    -21.37371009	     -7.56225482	      1.30311219	     -8.47578677
      5.66000000	     -2.72815883	     -0.22264218	    298.95348557	     -0.60937929	      0.92517408	      0.60258526	     29.83549449	      0.31627461	      9.69611764	    -12.33418661	     12.04140732	     11.89093923	     -6.03011290	      9.81444057	     25.20802076	    -21.44968749	     13.43539712	    -20.95093454	     -7.52112684	      1.24825592	     -8.54483864
